<?xml version="1.0" encoding="UTF-8"?>
<svg version="1.1" xmlns="http://www.w3.org/2000/svg" width="290" height="285">
<path d="M0 0 C1.35805504 -0.00639748 1.35805504 -0.00639748 2.74354553 -0.01292419 C4.2302903 -0.01224442 4.2302903 -0.01224442 5.74707031 -0.0115509 C6.79297836 -0.01490952 7.83888641 -0.01826813 8.91648865 -0.02172852 C12.38606952 -0.03125261 15.85560216 -0.03318279 19.32519531 -0.03425598 C21.73836283 -0.03746907 24.15153016 -0.04083318 26.56469727 -0.04434204 C31.63216605 -0.05033802 36.69961777 -0.05218161 41.76708984 -0.05158997 C48.24199905 -0.05148866 54.71679781 -0.06510568 61.19168091 -0.08236217 C66.1812998 -0.09351815 71.17089238 -0.09550802 76.16052246 -0.09498024 C78.54618712 -0.09615629 80.93185254 -0.10055689 83.31750488 -0.10831261 C86.66780141 -0.11817892 90.01786324 -0.1152076 93.36816406 -0.10920715 C94.34313339 -0.11482666 95.31810272 -0.12044617 96.32261658 -0.12623596 C108.58917741 -0.07078779 120.05900388 2.03171763 129.81738281 9.95402527 C135.07067278 15.33810253 136.51992651 20.93844559 136.59863281 28.33683777 C136.14801562 34.55061163 133.24307876 38.18784875 129.32519531 42.75871277 C126.00575775 45.62549975 122.56085731 47.36340632 118.57519531 49.13371277 C120.88519531 50.12371277 123.19519531 51.11371277 125.57519531 52.13371277 C125.57519531 52.79371277 125.57519531 53.45371277 125.57519531 54.13371277 C126.13207031 54.38121277 126.68894531 54.62871277 127.26269531 54.88371277 C133.83736444 58.43758797 136.96445814 63.00478651 139.16894531 70.02433777 C140.64974486 77.71310467 140.11850208 85.16928222 136.57519531 92.13371277 C134.26269531 94.82121277 134.26269531 94.82121277 131.57519531 97.13371277 C130.68832031 97.99996277 129.80144531 98.86621277 128.88769531 99.75871277 C120.37854359 106.73270826 107.51587656 106.2824736 97.13208008 106.24723816 C95.43342552 106.2474572 95.43342552 106.2474572 93.70045471 106.24768066 C89.9724839 106.24698625 86.2445636 106.23921593 82.51660156 106.23136902 C79.92585782 106.22950316 77.33511373 106.22808005 74.74436951 106.2270813 C68.63179717 106.22365854 62.51924555 106.21578401 56.406681 106.20573181 C49.44413854 106.19453177 42.48159519 106.18905044 35.51904595 106.18403637 C21.20441942 106.17360029 6.88980801 106.15602516 -7.42480469 106.13371277 C-7.75480469 104.81371277 -8.08480469 103.49371277 -8.42480469 102.13371277 C-4.19851255 100.72494872 -1.31576717 101.13371277 3.57519531 101.13371277 C3.90519531 69.45371277 4.23519531 37.77371277 4.57519531 5.13371277 C0.61519531 5.13371277 -3.34480469 5.13371277 -7.42480469 5.13371277 C-7.42480469 3.81371277 -7.42480469 2.49371277 -7.42480469 1.13371277 C-4.61401771 0.19678377 -2.90720451 0.00619258 0 0 Z M21.57519531 5.13371277 C21.57519531 19.32371277 21.57519531 33.51371277 21.57519531 48.13371277 C26.52519531 48.13371277 31.47519531 48.13371277 36.57519531 48.13371277 C41.30520175 43.68457864 41.30520175 43.68457864 43.38769531 38.44621277 C43.62101562 37.67922058 43.85433594 36.91222839 44.09472656 36.12199402 C44.65349179 34.15062379 44.65349179 34.15062379 44.57519531 32.13371277 C45.23519531 32.46371277 45.89519531 32.79371277 46.57519531 33.13371277 C46.57519531 44.68371277 46.57519531 56.23371277 46.57519531 68.13371277 C45.91519531 68.13371277 45.25519531 68.13371277 44.57519531 68.13371277 C44.32769531 66.93746277 44.08019531 65.74121277 43.82519531 64.50871277 C42.74379993 60.3596856 41.5496774 57.33700117 38.57519531 54.13371277 C32.58239531 51.56874709 28.17218624 52.3090889 21.57519531 53.13371277 C21.57519531 69.30371277 21.57519531 85.47371277 21.57519531 102.13371277 C25.51457031 102.19558777 29.45394531 102.25746277 33.51269531 102.32121277 C34.73593506 102.34852478 35.9591748 102.37583679 37.21948242 102.40397644 C45.3025242 102.46498796 51.9553465 101.95729255 58.46972656 96.87590027 C60.86668876 93.75406824 62.03316961 90.9922227 63.26269531 87.25871277 C63.6584375 86.08566589 64.05417969 84.91261902 64.46191406 83.70402527 C65.55663397 80.19323933 66.58354206 76.67468466 67.57519531 73.13371277 C70.29183324 75.8503507 69.88272652 77.4356593 69.98925781 81.23527527 C70.04726562 83.05285339 70.04726562 83.05285339 70.10644531 84.90715027 C70.15285156 86.81367371 70.15285156 86.81367371 70.20019531 88.75871277 C70.25820312 90.67683777 70.25820312 90.67683777 70.31738281 92.63371277 C70.4119058 95.80023294 70.49745888 98.96674317 70.57519531 102.13371277 C70.90519531 102.13371277 71.23519531 102.13371277 71.57519531 102.13371277 C71.57519531 70.12371277 71.57519531 38.11371277 71.57519531 5.13371277 C69.92519531 5.13371277 68.27519531 5.13371277 66.57519531 5.13371277 C65.31338436 6.17164049 65.31338436 6.17164049 65.46166992 8.45036316 C65.46690674 9.45059509 65.47214355 10.45082703 65.47753906 11.48136902 C65.48076172 12.56095886 65.48398438 13.64054871 65.48730469 14.75285339 C65.49568359 15.88916199 65.5040625 17.02547058 65.51269531 18.19621277 C65.51720703 19.33638855 65.52171875 20.47656433 65.52636719 21.65129089 C65.53819784 24.47881628 65.55468122 27.30623917 65.57519531 30.13371277 C64.58519531 30.13371277 63.59519531 30.13371277 62.57519531 30.13371277 C62.50042969 29.28808777 62.42566406 28.44246277 62.34863281 27.57121277 C61.32897053 18.77412644 59.38017409 13.34056141 52.69238281 7.48527527 C48.71806456 4.94816435 44.44481834 5.01141532 39.83691406 5.03605652 C38.87487061 5.03855408 37.91282715 5.04105164 36.92163086 5.04362488 C35.11045776 5.05728088 35.11045776 5.05728088 33.26269531 5.07121277 C29.40582031 5.09183777 25.54894531 5.11246277 21.57519531 5.13371277 Z M88.57519531 5.13371277 C87.79274597 10.52918838 87.47960674 15.67924281 87.69628906 21.13371277 C87.71990005 21.85486267 87.74351105 22.57601257 87.76783752 23.3190155 C87.84355745 25.590829 87.92796692 27.86221928 88.01269531 30.13371277 C88.0660082 31.68707844 88.11874771 33.2404639 88.17089844 34.79386902 C88.29904591 38.57407779 88.43497973 42.35393318 88.57519531 46.13371277 C96.88540233 47.88978863 106.53862256 48.97006446 114.09082031 44.40324402 C117.8813846 41.16131404 118.79200456 36.83966765 119.57519531 32.13371277 C120.07900652 24.65405404 120.43322772 16.82385885 116.57519531 10.13371277 C110.54929631 4.7773581 103.83670994 4.98145265 96.20019531 5.07121277 C95.09611328 5.07798035 95.09611328 5.07798035 93.96972656 5.08488464 C92.17151373 5.09656135 90.37334334 5.11449266 88.57519531 5.13371277 Z M87.57519531 53.13371277 C87.57519531 68.97371277 87.57519531 84.81371277 87.57519531 101.13371277 C97.11758991 102.72411187 107.87883385 103.52728981 116.51269531 98.38371277 C121.30671515 93.15387294 122.21160286 87.96243354 122.57519531 81.13371277 C122.61644531 80.41054871 122.65769531 79.68738464 122.70019531 78.94230652 C122.91157163 71.55734644 122.64241021 61.89985386 117.57519531 56.13371277 C111.98097128 52.27587775 107.61015251 51.44675353 100.88769531 51.25871277 C99.62602539 51.18910339 99.62602539 51.18910339 98.33886719 51.11808777 C93.74647872 50.92871092 91.87345017 50.98458534 87.57519531 53.13371277 Z " fill="#3F3737" transform="translate(73.4248046875,89.86628723144531)"/>
<path d="M0 0 C0.99 1.485 0.99 1.485 2 3 C1.42145264 3.13051758 0.84290527 3.26103516 0.24682617 3.39550781 C-17.25574098 7.37280991 -36.49159504 11.77783616 -51 23 C-51.66 23 -52.32 23 -53 23 C-53 23.66 -53 24.32 -53 25 C-57.38461538 28 -57.38461538 28 -60 28 C-60 28.66 -60 29.32 -60 30 C-61.32 30.33 -62.64 30.66 -64 31 C-64 31.66 -64 32.32 -64 33 C-64.66 33 -65.32 33 -66 33 C-66 33.66 -66 34.32 -66 35 C-69.46153846 38 -69.46153846 38 -72 38 C-72.66 39.32 -73.32 40.64 -74 42 C-74.66 42 -75.32 42 -76 42 C-76.26683594 42.58652344 -76.53367188 43.17304687 -76.80859375 43.77734375 C-78.37172119 46.69347331 -80.44313515 48.88256157 -82.66015625 51.31640625 C-84.21478916 53.07218444 -84.21478916 53.07218444 -85 56 C-85.66 56.66 -86.32 57.32 -87 58 C-91.3494187 62.64937861 -93.5300464 68.21990367 -96 74 C-96.66 74 -97.32 74 -98 74 C-98.40412109 75.72089844 -98.40412109 75.72089844 -98.81640625 77.4765625 C-99.72965729 81.13438592 -100.88311298 84.64139151 -102.1574707 88.18676758 C-110.51101624 111.62114274 -111.5491276 135.64850046 -107 160 C-106.83951172 160.87736816 -106.67902344 161.75473633 -106.51367188 162.65869141 C-105.70014306 166.94079688 -104.86192548 170.98066831 -103.125 175 C-102.60292969 176.23363281 -102.60292969 176.23363281 -102.0703125 177.4921875 C-101.54050781 178.73355469 -101.54050781 178.73355469 -101 180 C-100.33058821 181.70725952 -99.66389953 183.41558939 -99 185.125 C-97.72319045 188.3372907 -96.32683196 191.42406722 -94.75 194.5 C-93 198 -93 198 -93 200 C-92.34 200 -91.68 200 -91 200 C-89.94410931 201.63183107 -88.9563874 203.30792999 -88 205 C-87.278125 206.051875 -86.55625 207.10375 -85.8125 208.1875 C-84 211 -84 211 -84 213 C-83.34 213 -82.68 213 -82 213 C-80.71211757 214.47144268 -79.49429673 216.0045715 -78.3125 217.5625 C-72.31130607 225.22589513 -65.80494698 231.20797612 -58 237 C-56.94619141 237.83144531 -56.94619141 237.83144531 -55.87109375 238.6796875 C-29.81833752 258.34385481 5.12838504 265.13681713 37.06054688 261.66748047 C42.79811925 260.8036415 48.4067863 259.53419297 54 258 C55.09828125 257.69964844 56.1965625 257.39929688 57.328125 257.08984375 C68.77540229 253.55465518 80.00476758 248.5968534 90 242 C90.66 242 91.32 242 92 242 C92.33 241.34 92.66 240.68 93 240 C94.64363134 239.27840576 96.31050386 238.60648579 98 238 C98 237.34 98 236.68 98 236 C99.32 235.67 100.64 235.34 102 235 C102 234.34 102 233.68 102 233 C103.50390625 231.484375 103.50390625 231.484375 105.5625 229.75 C106.29855469 229.11835938 107.03460938 228.48671875 107.79296875 227.8359375 C109.09021628 226.75681124 110.40034981 225.69231543 111.73828125 224.6640625 C126.85532916 212.75803431 138.33084444 191.28153987 143 173 C143.33 172.01 143.66 171.02 144 170 C144.34820041 168.33637583 144.68404492 166.67004829 145 165 C145.66 165 146.32 165 147 165 C147 164.34 147 163.68 147 163 C147.66 163 148.32 163 149 163 C150.38991237 168.28663099 149.37460766 172.09081258 147.5 177.0625 C147.22518799 177.81055908 146.95037598 178.55861816 146.66723633 179.3293457 C142.95670737 189.12685679 137.74568162 197.96978567 132.1875 206.8125 C131.80231201 207.43020264 131.41712402 208.04790527 131.02026367 208.68432617 C130.069019 210.16017754 129.04091664 211.58596456 128 213 C127.34 213 126.68 213 126 213 C125.67 214.32 125.34 215.64 125 217 C124.34 217 123.68 217 123 217 C122.79375 217.53109375 122.5875 218.0621875 122.375 218.609375 C120.4326822 221.98635937 117.75643522 224.53958403 115 227.25 C114.41476563 227.8277417 113.82953125 228.4054834 113.2265625 229.00073242 C95.60994359 246.18703272 74.07324098 257.53343907 50.1875 263.25 C49.5066333 263.41322754 48.8257666 263.57645508 48.12426758 263.74462891 C38.63356379 265.9000941 29.33613597 266.15729868 19.625 266.125 C18.47 266.12886719 17.315 266.13273437 16.125 266.13671875 C5.33213664 266.12453719 -4.55727878 265.54171267 -14.875 262.25 C-16.18005493 261.84140747 -16.18005493 261.84140747 -17.51147461 261.42456055 C-20.01287697 260.63158005 -22.50694034 259.81876554 -25 259 C-26.15886719 258.63003906 -27.31773438 258.26007813 -28.51171875 257.87890625 C-42.28138348 253.06569438 -57.87615616 244.64301531 -68 234 C-70.61134305 231.37083208 -73.24037237 228.76160031 -75.89453125 226.17578125 C-76.86721196 225.2213791 -77.83986808 224.26695188 -78.8125 223.3125 C-79.31458984 222.82716797 -79.81667969 222.34183594 -80.33398438 221.84179688 C-81.59417273 220.59875394 -82.80191044 219.30300108 -84 218 C-84 217.34 -84 216.68 -84 216 C-84.66 216 -85.32 216 -86 216 C-102.03936822 195.95078972 -112.61881113 170.59427536 -114 145 C-114.11516605 143.38015703 -114.23111667 141.76036973 -114.34765625 140.140625 C-116.02595186 114.93373766 -111.6736383 87.21849937 -97 66 C-96.27382183 64.65531835 -95.56386642 63.30167247 -94.875 61.9375 C-92.53603343 57.65550478 -89.76228697 53.81061142 -86.8125 49.9375 C-86.37212402 49.35282959 -85.93174805 48.76815918 -85.47802734 48.16577148 C-84.36926103 46.73647245 -83.18985192 45.3625384 -82 44 C-81.34 44 -80.68 44 -80 44 C-79.7628125 43.43796875 -79.525625 42.8759375 -79.28125 42.296875 C-77.71052303 39.48105958 -75.78528536 37.52044584 -73.5 35.25 C-72.7059375 34.45078125 -71.911875 33.6515625 -71.09375 32.828125 C-69 31 -69 31 -67 31 C-66.505 29.515 -66.505 29.515 -66 28 C-62.48754934 24.81802185 -58.4941255 22.49804183 -54 21 C-54 20.34 -54 19.68 -54 19 C-15.16997519 -1.37908865 -15.16997519 -1.37908865 0 0 Z " fill="#2A2528" transform="translate(123,11)"/>
<path d="M0 0 C0.99 1.485 0.99 1.485 2 3 C1.42145264 3.13051758 0.84290527 3.26103516 0.24682617 3.39550781 C-17.25574098 7.37280991 -36.49159504 11.77783616 -51 23 C-51.66 23 -52.32 23 -53 23 C-53 23.66 -53 24.32 -53 25 C-57.38461538 28 -57.38461538 28 -60 28 C-60 28.66 -60 29.32 -60 30 C-61.32 30.33 -62.64 30.66 -64 31 C-64 31.66 -64 32.32 -64 33 C-64.66 33 -65.32 33 -66 33 C-66 33.66 -66 34.32 -66 35 C-69.46153846 38 -69.46153846 38 -72 38 C-72.66 39.32 -73.32 40.64 -74 42 C-74.66 42 -75.32 42 -76 42 C-76.26683594 42.58652344 -76.53367188 43.17304687 -76.80859375 43.77734375 C-78.37172119 46.69347331 -80.44313515 48.88256157 -82.66015625 51.31640625 C-84.21478916 53.07218444 -84.21478916 53.07218444 -85 56 C-85.66 56.66 -86.32 57.32 -87 58 C-91.3494187 62.64937861 -93.5300464 68.21990367 -96 74 C-96.66 74 -97.32 74 -98 74 C-98.40412109 75.72089844 -98.40412109 75.72089844 -98.81640625 77.4765625 C-99.72965729 81.13438592 -100.88311298 84.64139151 -102.1574707 88.18676758 C-109.3636447 108.40239747 -111.84611618 130.40624843 -108.47265625 151.65234375 C-108.02513675 154.82196531 -107.91706761 157.80466369 -108 161 C-110.29013653 157.5647952 -110.17842973 156.014669 -110 152 C-110.99 152.33 -111.98 152.66 -113 153 C-117.64921314 124.03182583 -114.07399952 90.68949015 -97 66 C-96.27382183 64.65531835 -95.56386642 63.30167247 -94.875 61.9375 C-92.53603343 57.65550478 -89.76228697 53.81061142 -86.8125 49.9375 C-86.37212402 49.35282959 -85.93174805 48.76815918 -85.47802734 48.16577148 C-84.36926103 46.73647245 -83.18985192 45.3625384 -82 44 C-81.34 44 -80.68 44 -80 44 C-79.7628125 43.43796875 -79.525625 42.8759375 -79.28125 42.296875 C-77.71052303 39.48105958 -75.78528536 37.52044584 -73.5 35.25 C-72.7059375 34.45078125 -71.911875 33.6515625 -71.09375 32.828125 C-69 31 -69 31 -67 31 C-66.505 29.515 -66.505 29.515 -66 28 C-62.48754934 24.81802185 -58.4941255 22.49804183 -54 21 C-54 20.34 -54 19.68 -54 19 C-15.16997519 -1.37908865 -15.16997519 -1.37908865 0 0 Z " fill="#302830" transform="translate(123,11)"/>
<path d="M0 0 C0.33 0 0.66 0 1 0 C2.12076229 21.43442729 1.94251954 42.73612122 1.5625 64.1875 C1.376875 75.345625 1.19125 86.50375 1 98 C-25.73 98 -52.46 98 -80 98 C-80 97.01 -80 96.02 -80 95 C-77.93758253 94.97217128 -75.87504512 94.95324462 -73.8125 94.9375 C-72.66394531 94.92589844 -71.51539062 94.91429687 -70.33203125 94.90234375 C-64.54458348 95.03280921 -58.77186677 95.55601025 -53 96 C-53 79.5 -53 63 -53 46 C-52.67 46 -52.34 46 -52 46 C-52 62.17 -52 78.34 -52 95 C-47.565625 94.938125 -43.13125 94.87625 -38.5625 94.8125 C-37.18263916 94.80581299 -35.80277832 94.79912598 -34.38110352 94.79223633 C-26.83844597 94.60193867 -20.97877797 93.86304159 -15 89 C-10.28248501 83.39424997 -9.05049076 75.71958551 -7.7734375 68.6875 C-7 66 -7 66 -4 64 C-3.01 65.485 -3.01 65.485 -2 67 C-2.00523682 66.09233887 -2.01047363 65.18467773 -2.01586914 64.24951172 C-2.03297684 60.86132158 -2.04548213 57.47317779 -2.05493164 54.08496094 C-2.05994045 52.62238843 -2.06674938 51.15982089 -2.07543945 49.69726562 C-2.08765698 47.58722709 -2.09326295 45.47725513 -2.09765625 43.3671875 C-2.10289307 42.09987793 -2.10812988 40.83256836 -2.11352539 39.52685547 C-2.00773714 36.24036713 -1.55622353 33.23371017 -1 30 C-0.85768773 27.61910389 -0.75491235 25.23564151 -0.68359375 22.8515625 C-0.6524221 21.86547501 -0.6524221 21.86547501 -0.62062073 20.85946655 C-0.55579247 18.78140638 -0.49655436 16.70323144 -0.4375 14.625 C-0.39425112 13.20701989 -0.35063491 11.78905093 -0.30664062 10.37109375 C-0.20018082 6.9141812 -0.09873016 3.45714294 0 0 Z " fill="#120C0E" transform="translate(146,98)"/>
<path d="M0 0 C5.0509771 1.19628405 8.34467993 4.4542319 11.1328125 8.7421875 C12.13359375 10.4694618 13.06892773 12.23417327 14 14 C14.37125 14.639375 14.7425 15.27875 15.125 15.9375 C16.6806114 19.60429829 15.83171428 23.19980956 15 27 C13.625 30.0625 13.625 30.0625 12 32 C11.01 32 10.02 32 9 32 C6.97481509 32.9479589 4.97522846 33.95191959 3 35 C1.66666667 35.66666667 0.33333333 36.33333333 -1 37 C-0.979375 36.195625 -0.95875 35.39125 -0.9375 34.5625 C-0.70366379 32.06645115 -0.70366379 32.06645115 -2 31 C-2.08733213 29.25448434 -2.10698445 27.50548662 -2.09765625 25.7578125 C-2.09443359 24.69175781 -2.09121094 23.62570313 -2.08789062 22.52734375 C-2.07951172 21.40457031 -2.07113281 20.28179687 -2.0625 19.125 C-2.05798828 18.00996094 -2.05347656 16.89492187 -2.04882812 15.74609375 C-2.04007701 13.6733292 -2.02928438 11.60057164 -2.01586914 9.52783203 C-1.85481246 5.63205172 -1.85481246 5.63205172 -3 2 C-2.01 1.34 -1.02 0.68 0 0 Z " fill="#3D3534" transform="translate(194,97)"/>
<path d="M0 0 C1 3 1 3 0.0625 5.1875 C-0.288125 5.785625 -0.63875 6.38375 -1 7 C-1.66 7 -2.32 7 -3 7 C-3.26941406 8.14726563 -3.53882812 9.29453125 -3.81640625 10.4765625 C-4.72965729 14.13438592 -5.88311298 17.64139151 -7.1574707 21.18676758 C-14.3636447 41.40239747 -16.84611618 63.40624843 -13.47265625 84.65234375 C-13.02513675 87.82196531 -12.91706761 90.80466369 -13 94 C-15.29013653 90.5647952 -15.17842973 89.014669 -15 85 C-16.485 85.495 -16.485 85.495 -18 86 C-22.07468265 60.61159273 -19.0194606 36.35103906 -9.4375 12.5625 C-9.15688721 11.85875244 -8.87627441 11.15500488 -8.5871582 10.42993164 C-6.63254671 5.80865134 -4.57478222 2.28739111 0 0 Z " fill="#332D31" transform="translate(28,78)"/>
<path d="M0 0 C0.33 0 0.66 0 1 0 C1 18.81 1 37.62 1 57 C-3.77535612 57.79589269 -8.08611498 58.1228251 -12.875 58.0625 C-13.56335938 58.05798828 -14.25171875 58.05347656 -14.9609375 58.04882812 C-16.64066335 58.03716336 -18.32034375 58.01923271 -20 58 C-16.44855103 52.41915162 -16.44855103 52.41915162 -13.9140625 50.05078125 C-11.38138298 47.33719605 -10.55255095 44.69356298 -9.375 41.1875 C-8.97023437 40.00542969 -8.56546875 38.82335937 -8.1484375 37.60546875 C-7.02711448 34.08512472 -5.99316872 30.55809527 -5 27 C-4.01 27 -3.02 27 -2 27 C-1.67 27.66 -1.34 28.32 -1 29 C-0.67 19.43 -0.34 9.86 0 0 Z " fill="#3E3537" transform="translate(145,136)"/>
<path d="M0 0 C7.50263439 -0.04662024 15.00525351 -0.0820185 22.50800037 -0.10362434 C25.99293497 -0.11400118 29.47776947 -0.12804681 32.96264648 -0.15087891 C36.98161709 -0.17704138 41.0004848 -0.18652312 45.01953125 -0.1953125 C46.87019951 -0.21079636 46.87019951 -0.21079636 48.758255 -0.22659302 C61.6373899 -0.22824124 74.20130295 1.16443534 84.27734375 9.99609375 C87.51015701 13.49334981 89.5912286 16.11878852 90 21 C89.34 21.66 88.68 22.32 88 23 C87.32880451 21.5437455 86.66318193 20.08492133 86 18.625 C85.62875 17.81289062 85.2575 17.00078125 84.875 16.1640625 C84 14 84 14 84 12 C81.06279492 10.47700477 78.0831351 9.19899698 75 8 C74.34 8.66 73.68 9.32 73 10 C73.99 11.485 73.99 11.485 75 13 C74.01 13.66 73.02 14.32 72 15 C71.690625 14.071875 71.38125 13.14375 71.0625 12.1875 C68.2030293 7.76831801 64.95272438 7.18366998 60 6 C60 5.67 60 5.34 60 5 C43.35205117 3.79406038 26.70716862 3.87986471 10.02740479 3.93133545 C6.29236427 3.94173086 2.55731657 3.94616712 -1.17773438 3.95117188 C-8.45184197 3.96176337 -15.72591492 3.97873512 -23 4 C-23 3.34 -23 2.68 -23 2 C-15.41 2 -7.82 2 0 2 C0 1.34 0 0.68 0 0 Z " fill="#2F262B" transform="translate(119,90)"/>
<path d="M0 0 C7.75238564 0.96429019 14.96591322 2.40559586 22.34375 5 C32.27813004 7.71709539 42.30289526 8.38796587 52.5625 8.375 C53.77252686 8.37483887 54.98255371 8.37467773 56.22924805 8.37451172 C69.39165912 8.20916573 81.41520239 5.61286056 94 2 C95.64192903 1.60825846 97.28732795 1.23042167 98.9375 0.875 C99.70964844 0.70742188 100.48179687 0.53984375 101.27734375 0.3671875 C101.84582031 0.24601562 102.41429687 0.12484375 103 0 C103 0.99 103 1.98 103 3 C96.58021723 5.60673685 90.10703993 7.59054564 83.375 9.1875 C82.68349854 9.35411133 81.99199707 9.52072266 81.27954102 9.69238281 C71.73129201 11.88758983 62.40159823 12.1575164 52.625 12.125 C51.47 12.12886719 50.315 12.13273437 49.125 12.13671875 C38.11560931 12.1242928 28.19888936 11.44724854 17.6875 8.0625 C16.83349609 7.79759766 15.97949219 7.53269531 15.09960938 7.25976562 C10.71519024 5.89323746 6.35112284 4.46930249 2 3 C2 2.34 2 1.68 2 1 C1.34 0.67 0.68 0.34 0 0 Z " fill="#211D1E" transform="translate(90,265)"/>
<path d="M0 0 C3.22381711 3.22381711 3.34596824 3.9448055 3.3732605 8.25978088 C3.36247467 8.96900192 3.35168884 9.67822296 3.34057617 10.40893555 C3.34101425 11.16039856 3.34145233 11.91186157 3.34190369 12.68609619 C3.33981367 15.16990137 3.31647326 17.6530315 3.29296875 20.13671875 C3.28737354 21.85878633 3.28310309 23.58085868 3.28010559 25.30293274 C3.26865091 29.83551212 3.23917845 34.36780312 3.20599365 38.90026855 C3.17530615 43.52526956 3.16160308 48.15031716 3.14648438 52.77539062 C3.11430928 61.85038712 3.06310545 70.92516958 3 80 C1.02 80.99 1.02 80.99 -1 82 C-0.505 41.41 -0.505 41.41 0 0 Z " fill="#241F1F" transform="translate(78,110)"/>
<path d="M0 0 C3.98481017 0.41222174 7.86957065 0.97647995 11.8125 1.6875 C15.15391196 2.35473043 15.15391196 2.35473043 18 0 C19.9375 0.3125 19.9375 0.3125 22 1 C25.08337924 1.9103943 27.85028805 2.13468993 31.0625 2.125 C32.34833984 2.12886719 32.34833984 2.12886719 33.66015625 2.1328125 C36.15564201 2.09365135 36.15564201 2.09365135 39 1 C39.495 3.97 39.495 3.97 40 7 C36.00204108 7.95619733 32.29196078 8.1039592 28.1875 8.0625 C27.02605469 8.05347656 25.86460937 8.04445312 24.66796875 8.03515625 C23.78753906 8.02355469 22.90710938 8.01195312 22 8 C22 7.34 22 6.68 22 6 C21.401875 6.33 20.80375 6.66 20.1875 7 C16.03381071 8.89882939 10.55438288 8 6 8 C6 7.34 6 6.68 6 6 C3.83125748 6.50603992 2.00032373 6.99983813 0 8 C-0.38063221 5.6739143 -0.71269945 3.33944736 -1 1 C-0.67 0.67 -0.34 0.34 0 0 Z " fill="#4A3E47" transform="translate(114,218)"/>
<path d="M0 0 C0.66 0.99 1.32 1.98 2 3 C1.42145264 3.13051758 0.84290527 3.26103516 0.24682617 3.39550781 C-13.75399222 6.57706877 -26.64243151 10.04365385 -39.40795898 16.71435547 C-43.80280577 19 -43.80280577 19 -46 19 C-46 18.34 -46 17.68 -46 17 C-46.66 16.67 -47.32 16.34 -48 16 C-13.32223863 -1.2111126 -13.32223863 -1.2111126 0 0 Z " fill="#383234" transform="translate(123,11)"/>
<path d="M0 0 C2.27991712 1.77502198 2.95047123 2.6300787 3.34057617 5.54370117 C3.32486572 6.53345947 3.30915527 7.52321777 3.29296875 8.54296875 C3.28330078 9.61611328 3.27363281 10.68925781 3.26367188 11.79492188 C3.23853516 12.91447266 3.21339844 14.03402344 3.1875 15.1875 C3.17396484 16.31865234 3.16042969 17.44980469 3.14648438 18.61523438 C3.11109958 21.41063317 3.06172948 24.20507892 3 27 C2.67 27 2.34 27 2 27 C1.67 24.69 1.34 22.38 1 20 C-1.29781554 19.88364895 -1.29781554 19.88364895 -4 21 C-5.73161199 23.00257328 -7.20079842 25.08246518 -8.66796875 27.28515625 C-9.32732422 28.13400391 -9.32732422 28.13400391 -10 29 C-10.66 29 -11.32 29 -12 29 C-12 28.01 -12 27.02 -12 26 C-11.39414063 25.41863281 -10.78828125 24.83726562 -10.1640625 24.23828125 C-7.44629902 21.42730927 -6.61560556 18.88130301 -5.375 15.1875 C-4.97023437 14.00542969 -4.56546875 12.82335937 -4.1484375 11.60546875 C-3.35389248 9.1110298 -2.61032608 6.63385835 -1.9140625 4.11328125 C-1 1 -1 1 0 0 Z " fill="#3F383B" transform="translate(141,162)"/>
<path d="M0 0 C8.00753121 -0.93110828 15.94761881 2.23328873 22.51171875 6.71484375 C25.99985779 9.66138634 29.29735728 12.68663845 31 17 C30.6875 19.8125 30.6875 19.8125 30 22 C25 14.5 25 14.5 25 11 C22.06279492 9.47700477 19.0831351 8.19899698 16 7 C15.34 7.66 14.68 8.32 14 9 C14.99 10.485 14.99 10.485 16 12 C15.01 12.66 14.02 13.32 13 14 C12.62875 13.071875 12.2575 12.14375 11.875 11.1875 C9.69057041 7.4739697 7.93281241 6.57312496 4 5 C4.33 4.01 4.66 3.02 5 2 C3.35 1.67 1.7 1.34 0 1 C0 0.67 0 0.34 0 0 Z " fill="#2E2828" transform="translate(178,91)"/>
<path d="M0 0 C1.39973958 1.20442708 2.79947917 2.40885417 4.19921875 3.61328125 C9.12132214 7.40362117 14.83786404 10.10291638 20.3125 13 C21.12912109 13.43828125 21.94574219 13.8765625 22.78710938 14.328125 C27.76140084 16.95994136 32.68709561 19.14140054 38 21 C34.75370153 22.08209949 34.12563502 21.78140875 31 21 C30.01 21.33 29.02 21.66 28 22 C25.90283203 21.16723633 25.90283203 21.16723633 23.5078125 19.83203125 C22.20263672 19.10983398 22.20263672 19.10983398 20.87109375 18.37304688 C19.96488281 17.85806641 19.05867188 17.34308594 18.125 16.8125 C16.77728516 16.0690332 16.77728516 16.0690332 15.40234375 15.31054688 C10.96009665 12.82695673 6.88692796 10.31332305 3 7 C1.68861096 6.29114106 0.36222983 5.60543548 -1 5 C-0.67 4.34 -0.34 3.68 0 3 C0 2.67 0 2.34 0 2 C0 1.34 0 0.68 0 0 Z " fill="#2C262B" transform="translate(61,245)"/>
<path d="M0 0 C3.73307967 3.73307967 3.68812717 8.01003475 4 13 C4.07992188 14.216875 4.15984375 15.43375 4.2421875 16.6875 C4.41780854 19.4214564 4.58410577 22.15582997 4.74609375 24.890625 C5.08974759 30.59932175 5.54123117 36.29955332 6 42 C3.70986347 38.5647952 3.82157027 37.014669 4 33 C2.515 33.495 2.515 33.495 1 34 C0.00896681 27.96981498 -0.34878357 21.97613355 -0.625 15.875 C-0.6765625 14.89917969 -0.728125 13.92335937 -0.78125 12.91796875 C-0.82507812 11.97308594 -0.86890625 11.02820313 -0.9140625 10.0546875 C-0.9548291 9.20374512 -0.9955957 8.35280273 -1.03759766 7.47607422 C-0.99803153 4.8703625 -0.58642297 2.53436712 0 0 Z " fill="#433A3F" transform="translate(9,130)"/>
<path d="M0 0 C0.66 0.66 1.32 1.32 2 2 C4.9093558 2.14517744 7.719946 2.18630796 10.625 2.125 C11.42679688 2.11597656 12.22859375 2.10695312 13.0546875 2.09765625 C15.03658523 2.07406223 17.01832981 2.03819065 19 2 C19 1.67 19 1.34 19 1 C21.64 1.33 24.28 1.66 27 2 C26 5 26 5 24 6 C21.51900266 6.08649451 19.06655072 6.11565054 16.5859375 6.09765625 C15.85629791 6.0962413 15.12665833 6.09482635 14.37490845 6.09336853 C12.04156415 6.08776531 9.70831536 6.07521235 7.375 6.0625 C5.79427222 6.05748541 4.21354293 6.05292243 2.6328125 6.04882812 C-1.24482854 6.03779484 -5.12239807 6.02052811 -9 6 C-9 5.34 -9 4.68 -9 4 C-7.68 4 -6.36 4 -5 4 C-4.67 3.01 -4.34 2.02 -4 1 C-2.0625 0.1875 -2.0625 0.1875 0 0 Z " fill="#21191B" transform="translate(158,190)"/>
<path d="M0 0 C1.125 5.625 1.125 5.625 0 9 C-0.99 9 -1.98 9 -3 9 C-4.95099609 9.05220703 -4.95099609 9.05220703 -6.94140625 9.10546875 C-8.48176155 9.13333047 -10.02212664 9.16065532 -11.5625 9.1875 C-12.73329102 9.22520508 -12.73329102 9.22520508 -13.92773438 9.26367188 C-16.19140625 9.29296875 -16.19140625 9.29296875 -20 9 C-20.66 8.01 -21.32 7.02 -22 6 C-21.67 5.01 -21.34 4.02 -21 3 C-13.176 1.696 -13.176 1.696 -9 4 C-6.31006947 3.69621948 -6.31006947 3.69621948 -4 3 C-4 2.34 -4 1.68 -4 1 C-2 0 -2 0 0 0 Z M-16 4 C-15.67 4.66 -15.34 5.32 -15 6 C-14.67 5.34 -14.34 4.68 -14 4 C-14.66 4 -15.32 4 -16 4 Z " fill="#4D4A4A" transform="translate(176,217)"/>
<path d="M0 0 C0.33 0 0.66 0 1 0 C2.05329342 20.31337652 1.98218217 40.51267286 1.60510254 60.83972168 C1.53281517 64.82339782 1.46897813 68.80721002 1.40429688 72.79101562 C1.27750797 80.52749462 1.14182948 88.2637805 1 96 C0.34 95.67 -0.32 95.34 -1 95 C-1 77.51 -1 60.02 -1 42 C-1.33 42 -1.66 42 -2 42 C-1.90150757 40.97471191 -1.90150757 40.97471191 -1.80102539 39.92871094 C-1.02868327 31.37550063 -0.69070321 22.83203875 -0.4375 14.25 C-0.39416442 12.85936611 -0.35054622 11.46874101 -0.30664062 10.078125 C-0.20166251 6.71882523 -0.09950417 3.35946561 0 0 Z " fill="#2D2525" transform="translate(146,98)"/>
<path d="M0 0 C2.475 0.99 2.475 0.99 5 2 C5.33 1.34 5.66 0.68 6 0 C6.99 0.33 7.98 0.66 9 1 C9.33 2.98 9.66 4.96 10 7 C9.46375 7.103125 8.9275 7.20625 8.375 7.3125 C5.36637396 8.18341806 2.7747994 9.55479198 0 11 C-1.33333333 11.66666667 -2.66666667 12.33333333 -4 13 C-3.979375 12.195625 -3.95875 11.39125 -3.9375 10.5625 C-3.70366379 8.06645115 -3.70366379 8.06645115 -5 7 C-5.04063832 5.33382885 -5.042721 3.66611905 -5 2 C-4.01 2.495 -4.01 2.495 -3 3 C-2.01 2.01 -1.02 1.02 0 0 Z " fill="#413A39" transform="translate(197,121)"/>
<path d="M0 0 C1.32 0.33 2.64 0.66 4 1 C4.33 2.98 4.66 4.96 5 7 C5.66 6.67 6.32 6.34 7 6 C7 5.34 7 4.68 7 4 C8.32 4.66 9.64 5.32 11 6 C9.8006207 9.41361802 8.66702528 11.56488996 6 14 C5.67 14.66 5.34 15.32 5 16 C4.01 15.67 3.02 15.34 2 15 C0.8125 12.4375 0.8125 12.4375 0 10 C-0.99 10.99 -1.98 11.98 -3 13 C-3.99 11.68 -4.98 10.36 -6 9 C-5.34 9 -4.68 9 -4 9 C-4 8.34 -4 7.68 -4 7 C-3.34 7 -2.68 7 -2 7 C-1.34 4.69 -0.68 2.38 0 0 Z " fill="#2E282C" transform="translate(207,23)"/>
<path d="M0 0 C0.99 0.66 1.98 1.32 3 2 C3 3.32 3 4.64 3 6 C3.556875 5.54625 4.11375 5.0925 4.6875 4.625 C7.06201042 2.95642511 9.28676708 1.99961213 12 1 C12.66 0.67 13.32 0.34 14 0 C13.44502696 3.88481128 12.0784579 5.59730115 9 8 C5.75845976 9.77367296 2.61640973 11.19824879 -1 12 C-4.625 10.75 -4.625 10.75 -7 9 C-6.21625 8.443125 -5.4325 7.88625 -4.625 7.3125 C-1.91295142 4.92331435 -1.03866457 3.39926587 0 0 Z " fill="#362E30" transform="translate(191,127)"/>
<path d="M0 0 C0.33 0 0.66 0 1 0 C1 10.89 1 21.78 1 33 C0.34 33 -0.32 33 -1 33 C-1 27.39 -1 21.78 -1 16 C-1.99 16.33 -2.98 16.66 -4 17 C-4 16.34 -4 15.68 -4 15 C-5.65 15.33 -7.3 15.66 -9 16 C-8.54625 15.278125 -8.0925 14.55625 -7.625 13.8125 C-6.14205404 11.24586277 -5.08500471 8.74867861 -4 6 C-3.34 5.01 -2.68 4.02 -2 3 C-1.34 3.33 -0.68 3.66 0 4 C0 2.68 0 1.36 0 0 Z " fill="#3A3333" transform="translate(119,124)"/>
<path d="M0 0 C0.33 0 0.66 0 1 0 C1 16.17 1 32.34 1 49 C5.516875 48.87625 10.03375 48.7525 14.6875 48.625 C16.10377686 48.59100098 17.52005371 48.55700195 18.97924805 48.52197266 C20.10371338 48.4863623 21.22817871 48.45075195 22.38671875 48.4140625 C23.53358154 48.3826416 24.68044434 48.3512207 25.86206055 48.31884766 C28.94327872 48.00576348 31.2082114 47.30329197 34 46 C34 46.99 34 47.98 34 49 C31.04183458 50.47908271 28.04551087 50.12201325 24.8046875 50.09765625 C23.51030762 50.09515869 22.21592773 50.09266113 20.88232422 50.09008789 C19.22990723 50.08098389 17.57749023 50.07187988 15.875 50.0625 C10.63625 50.041875 5.3975 50.02125 0 50 C0 33.5 0 17 0 0 Z " fill="#2A2324" transform="translate(93,144)"/>
<path d="M0 0 C3.375 -0.125 3.375 -0.125 7 0 C7.66 0.66 8.32 1.32 9 2 C8.68834559 4.00349261 8.35236497 6.00326516 8 8 C8.36858988 10.76864953 8.36858988 10.76864953 9 13 C4.545 13.495 4.545 13.495 0 14 C0 13.01 0 12.02 0 11 C-0.26851042 8.68254852 -0.57132301 6.37116403 -0.87890625 4.05859375 C-1 2 -1 2 0 0 Z M3 3 C3.33 3.99 3.66 4.98 4 6 C4 5.01 4 4.02 4 3 C3.67 3 3.34 3 3 3 Z M5 3 C5.99 3.99 6.98 4.98 8 6 C7.67 5.01 7.34 4.02 7 3 C6.34 3 5.68 3 5 3 Z M4 8 C3.67 8.99 3.34 9.98 3 11 C4.65 10.67 6.3 10.34 8 10 C6.68 9.34 5.36 8.68 4 8 Z " fill="#463F46" transform="translate(138,6)"/>
<path d="M0 0 C0.66 0.33 1.32 0.66 2 1 C2 1.66 2 2.32 2 3 C2.66 3 3.32 3 4 3 C4.8125 5.125 4.8125 5.125 5 8 C3 11.375 3 11.375 0 14 C-3.8125 13.875 -3.8125 13.875 -7 13 C-7.33 11.35 -7.66 9.7 -8 8 C-7.50628906 7.59007813 -7.01257813 7.18015625 -6.50390625 6.7578125 C-5.86324219 6.21898438 -5.22257813 5.68015625 -4.5625 5.125 C-3.92441406 4.59132813 -3.28632813 4.05765625 -2.62890625 3.5078125 C-0.89194996 2.0777243 -0.89194996 2.0777243 0 0 Z M0 5 C0 5.99 0 6.98 0 8 C0.99 7.67 1.98 7.34 3 7 C2.67 6.34 2.34 5.68 2 5 C1.34 5 0.68 5 0 5 Z M-3 7 C-2.67 8.32 -2.34 9.64 -2 11 C-1.67 10.34 -1.34 9.68 -1 9 C-1.66 8.34 -2.32 7.68 -3 7 Z M-6 9 C-5.34 9.66 -4.68 10.32 -4 11 C-4 10.34 -4 9.68 -4 9 C-4.66 9 -5.32 9 -6 9 Z " fill="#323031" transform="translate(249,58)"/>
<path d="M0 0 C3.54465862 3.54465862 2.97501681 9.13348615 3.11352539 13.9375 C3.11337044 15.29167699 3.10792611 16.64586194 3.09765625 18 C3.0962413 18.7211499 3.09482635 19.4422998 3.09336853 20.18530273 C3.08783381 22.45691324 3.07529423 24.72842 3.0625 27 C3.05747654 28.55338398 3.05291512 30.10676952 3.04882812 31.66015625 C3.03788589 35.44014328 3.0206676 39.22005414 3 43 C2.67 43 2.34 43 2 43 C1.93941406 41.92878906 1.87882813 40.85757813 1.81640625 39.75390625 C1.73201463 38.35675609 1.64736594 36.95962143 1.5625 35.5625 C1.52318359 34.85544922 1.48386719 34.14839844 1.44335938 33.41992188 C1.52375562 29.91309581 1.52375562 29.91309581 0 27 C-0.08758003 25.00035018 -0.10696576 22.9976389 -0.09765625 20.99609375 C-0.09443359 19.78115234 -0.09121094 18.56621094 -0.08789062 17.31445312 C-0.07951172 16.03505859 -0.07113281 14.75566406 -0.0625 13.4375 C-0.05798828 12.15423828 -0.05347656 10.87097656 -0.04882812 9.54882812 C-0.03699545 6.36583978 -0.02051068 3.18294238 0 0 Z " fill="#211C1D" transform="translate(159,141)"/>
<path d="M0 0 C0.80566406 0.04833984 1.61132812 0.09667969 2.44140625 0.14648438 C3.28316406 0.20255859 4.12492188 0.25863281 4.9921875 0.31640625 C6.26642578 0.3947168 6.26642578 0.3947168 7.56640625 0.47460938 C9.66697874 0.60442003 11.76712941 0.74102365 13.8671875 0.87890625 C13.8671875 1.53890625 13.8671875 2.19890625 13.8671875 2.87890625 C15.1871875 3.20890625 16.5071875 3.53890625 17.8671875 3.87890625 C16.8671875 4.87890625 16.8671875 4.87890625 12.97265625 4.94140625 C10.50434441 4.91726628 8.03648014 4.8786202 5.56835938 4.83984375 C4.77365234 4.83210937 3.97894531 4.824375 3.16015625 4.81640625 C2.06997192 4.79900391 2.06997192 4.79900391 0.95776367 4.78125 C-1.194466 4.88178625 -3.06612258 5.28684169 -5.1328125 5.87890625 C-5.4628125 4.22890625 -5.7928125 2.57890625 -6.1328125 0.87890625 C-3.77622853 -0.29938574 -2.60708014 -0.16523747 0 0 Z " fill="#231D21" transform="translate(166.1328125,137.12109375)"/>
<path d="M0 0 C0.66 0.66 1.32 1.32 2 2 C1.625 4.125 1.625 4.125 1 6 C0.67 5.34 0.34 4.68 0 4 C-1.98 4.66 -3.96 5.32 -6 6 C-5.67 7.32 -5.34 8.64 -5 10 C-2.36 9.34 0.28 8.68 3 8 C3 9.65 3 11.3 3 13 C1.39592672 13.02708567 -0.2082785 13.04643483 -1.8125 13.0625 C-3.15248047 13.07990234 -3.15248047 13.07990234 -4.51953125 13.09765625 C-7 13 -7 13 -10 12 C-10.75 9.25 -10.75 9.25 -11 6 C-8.23642476 1.85463714 -4.70155636 1.08497454 0 0 Z " fill="#302E2F" transform="translate(274,112)"/>
<path d="M0 0 C2.72426311 2.35277269 3.8141763 4.62496331 5 8 C4.2575 8.144375 3.515 8.28875 2.75 8.4375 C0.47972261 8.90187492 -1.75759479 9.41863569 -4 10 C-3.67 9.01 -3.34 8.02 -3 7 C-3.99 7 -4.98 7 -6 7 C-6 8.32 -6 9.64 -6 11 C-4.68 11.33 -3.36 11.66 -2 12 C-3.98 12.99 -3.98 12.99 -6 14 C-9.22265625 8.7265625 -9.22265625 8.7265625 -10 7 C-8.72485508 4.44971017 -7.59658703 4.06918289 -5 3 C-4.01 3 -3.02 3 -2 3 C-1.67 2.34 -1.34 1.68 -1 1 C-0.67 0.67 -0.34 0.34 0 0 Z M-1 4 C-1 4.99 -1 5.98 -1 7 C-0.34 7 0.32 7 1 7 C0.67 6.01 0.34 5.02 0 4 C-0.33 4 -0.66 4 -1 4 Z " fill="#332E2F" transform="translate(260,75)"/>
<path d="M0 0 C0.99 0 1.98 0 3 0 C3.77112541 4.72314313 4.09764874 9.21521178 4 14 C1 14 1 14 -1 13 C-1.625 10.9375 -1.625 10.9375 -2 9 C-2.66 9.66 -3.32 10.32 -4 11 C-6.125 10.625 -6.125 10.625 -8 10 C-6.21450784 5.89336804 -5.20909581 3.68363832 -1 2 C-0.67 1.34 -0.34 0.68 0 0 Z " fill="#2F2C30" transform="translate(192,16)"/>
<path d="M0 0 C-0.165 0.7425 -0.33 1.485 -0.5 2.25 C-1.11925696 5.19006578 -1.11925696 5.19006578 -1 9 C-1.33 9.99 -1.66 10.98 -2 12 C-3.32 11.34 -4.64 10.68 -6 10 C-6 9.34 -6 8.68 -6 8 C-8.64 7.67 -11.28 7.34 -14 7 C-13.67 5.35 -13.34 3.7 -13 2 C-12.46375 2.226875 -11.9275 2.45375 -11.375 2.6875 C-7.05239761 3.25626347 -4.38495421 0 0 0 Z " fill="#545152" transform="translate(278,153)"/>
<path d="M0 0 C0.99 0.495 0.99 0.495 2 1 C2 8.26 2 15.52 2 23 C7.17578125 22.95117188 7.17578125 22.95117188 12.3515625 22.90234375 C15.67723791 22.99136076 18.74047588 23.36313913 22 24 C22 24.33 22 24.66 22 25 C18.52085059 25.02887814 15.04173169 25.04675687 11.5625 25.0625 C10.07266602 25.07506836 10.07266602 25.07506836 8.55273438 25.08789062 C7.60849609 25.09111328 6.66425781 25.09433594 5.69140625 25.09765625 C4.37958374 25.10551147 4.37958374 25.10551147 3.04125977 25.11352539 C1 25 1 25 0 24 C-0.08726223 22.21928754 -0.10699041 20.4351686 -0.09765625 18.65234375 C-0.09443359 17.57275391 -0.09121094 16.49316406 -0.08789062 15.38085938 C-0.07951172 14.24455078 -0.07113281 13.10824219 -0.0625 11.9375 C-0.05798828 10.79732422 -0.05347656 9.65714844 -0.04882812 8.48242188 C-0.03699747 5.65489649 -0.0205141 2.8274736 0 0 Z " fill="#372F31" transform="translate(159,168)"/>
<path d="M0 0 C3.63 0 7.26 0 11 0 C11 0.99 11 1.98 11 3 C13.64 3 16.28 3 19 3 C19.33 3.99 19.66 4.98 20 6 C13.07 5.67 6.14 5.34 -1 5 C-1 2 -1 2 0 0 Z " fill="#342E30" transform="translate(95,138)"/>
<path d="M0 0 C2.60890831 3.91336246 2.25670444 7.21893058 2.1875 11.75 C2.18685547 12.53632813 2.18621094 13.32265625 2.18554688 14.1328125 C2.15032946 18.84412053 1.7323257 23.33654993 1 28 C1 28.99 1 29.98 1 31 C0.34 31 -0.32 31 -1 31 C-1.66 31.66 -2.32 32.32 -3 33 C-4 30 -4 30 -3.1015625 28.05859375 C-2.73804688 27.37925781 -2.37453125 26.69992188 -2 26 C-0.98494941 19.60518131 -0.93887425 13.38514065 -1.0625 6.91796875 C-1.00847237 4.39555393 -0.74204273 2.39424724 0 0 Z " fill="#33292C" transform="translate(196,154)"/>
<path d="M0 0 C1.92578125 0.0859375 1.92578125 0.0859375 4.3125 0.375 C5.09238281 0.46523437 5.87226563 0.55546875 6.67578125 0.6484375 C8.83392672 0.97487967 10.89423359 1.43139488 13 2 C11.63016497 5.16115776 11.0109362 5.9927092 8 8 C7.01 9.485 7.01 9.485 6 11 C3.875 11.6875 3.875 11.6875 2 12 C1.67 11.01 1.34 10.02 1 9 C1.99 8.34 2.98 7.68 4 7 C3.67 6.01 3.34 5.02 3 4 C2.34 3.67 1.68 3.34 1 3 C0.67 3.66 0.34 4.32 0 5 C-0.5625 3.0625 -0.5625 3.0625 -1 1 C-0.67 0.67 -0.34 0.34 0 0 Z " fill="#3A373A" transform="translate(258,95)"/>
<path d="M0 0 C0.22176 3.88079996 -0.4190638 6.46614262 -2 10 C-2.33 10.99 -2.66 11.98 -3 13 C-4.32 12.67 -5.64 12.34 -7 12 C-6.67 10.68 -6.34 9.36 -6 8 C-6.99 8 -7.98 8 -9 8 C-9.99 8 -10.98 8 -12 8 C-12.33 7.01 -12.66 6.02 -13 5 C-11.35 4.34 -9.7 3.68 -8 3 C-8 2.34 -8 1.68 -8 1 C-2.25 0 -2.25 0 0 0 Z " fill="#2D2A2B" transform="translate(231,38)"/>
<path d="M0 0 C0.66 0 1.32 0 2 0 C2.33 1.98 2.66 3.96 3 6 C-1.96073422 7.32286246 -6.91111512 7.08893197 -12 7 C-12.33 5.02 -12.66 3.04 -13 1 C-11.71802734 1.01740234 -11.71802734 1.01740234 -10.41015625 1.03515625 C-8.75306641 1.04869141 -8.75306641 1.04869141 -7.0625 1.0625 C-5.40927734 1.07990234 -5.40927734 1.07990234 -3.72265625 1.09765625 C-1.08552366 1.31262571 -1.08552366 1.31262571 0 0 Z " fill="#3E3338" transform="translate(151,219)"/>
<path d="M0 0 C0.99 0 1.98 0 3 0 C3.69289369 3.72430357 4.11144596 7.21083746 4 11 C2.68 11.33 1.36 11.66 0 12 C0 11.01 0 10.02 0 9 C-3.1964086 7.93453047 -5.65747276 7.92572162 -9 8 C-9 6.35 -9 4.7 -9 3 C-6.69 3.33 -4.38 3.66 -2 4 C-1.34 2.68 -0.68 1.36 0 0 Z " fill="#3C3839" transform="translate(275,133)"/>
<path d="M0 0 C3.3422219 0.91911102 5.99593549 2.10524015 8 5 C7.875 7.0625 7.875 7.0625 7 9 C6.01 9.66 5.02 10.32 4 11 C3.34 10.01 2.68 9.02 2 8 C0.68 8.33 -0.64 8.66 -2 9 C-1.79375 8.401875 -1.5875 7.80375 -1.375 7.1875 C-0.69328085 4.71549154 -0.69328085 4.71549154 -3 2 C-2.01 1.34 -1.02 0.68 0 0 Z " fill="#403938" transform="translate(194,97)"/>
<path d="M0 0 C0.33 0.66 0.66 1.32 1 2 C1.99 1.67 2.98 1.34 4 1 C4.4125 1.70125 4.825 2.4025 5.25 3.125 C6.50289129 5.18332141 7.8240164 7.20070961 9.1875 9.1875 C11 12 11 12 11 14 C11.66 14.33 12.32 14.66 13 15 C12.67 15.66 12.34 16.32 12 17 C11.01 17 10.02 17 9 17 C6.9921875 14.55078125 6.9921875 14.55078125 4.875 11.3125 C4.17117187 10.25675781 3.46734375 9.20101562 2.7421875 8.11328125 C1.14880618 5.26591597 0.39252188 3.20559534 0 0 Z " fill="#1F1B20" transform="translate(28,210)"/>
<path d="M0 0 C3.70818297 -0.08756305 7.41609763 -0.14058015 11.125 -0.1875 C12.17171875 -0.21263672 13.2184375 -0.23777344 14.296875 -0.26367188 C20.05471464 -0.31833491 24.13514632 -0.20676341 29 3 C27.68 3.99 26.36 4.98 25 6 C25.66 6.66 26.32 7.32 27 8 C24.5625 7.625 24.5625 7.625 22 7 C21.67 6.34 21.34 5.68 21 5 C20.01 4.67 19.02 4.34 18 4 C18 3.34 18 2.68 18 2 C16.86820313 2.02320313 15.73640625 2.04640625 14.5703125 2.0703125 C13.08854825 2.08906901 11.60677688 2.10726934 10.125 2.125 C9.37863281 2.14175781 8.63226563 2.15851563 7.86328125 2.17578125 C5.90805539 2.1933959 3.95257979 2.10320189 2 2 C1.34 1.34 0.68 0.68 0 0 Z " fill="#4E3B47" transform="translate(162,136)"/>
<path d="M0 0 C9.0598059 -0.12224626 17.97746114 0.16069406 27 1 C27 1.66 27 2.32 27 3 C18.09 3 9.18 3 0 3 C0 2.01 0 1.02 0 0 Z " fill="#242122" transform="translate(66,193)"/>
<path d="M0 0 C-1.0975223 2.99324263 -1.67682892 3.84610901 -4.625 5.25 C-5.800625 5.62125 -5.800625 5.62125 -7 6 C-7 6.66 -7 7.32 -7 8 C-10.96 9.98 -10.96 9.98 -15 12 C-15 9 -15 9 -13 6 C-10.375 4.8125 -10.375 4.8125 -8 4 C-8 3.34 -8 2.68 -8 2 C-4.91190305 0.23537317 -3.76687864 0 0 0 Z " fill="#302B2F" transform="translate(77,28)"/>
<path d="M0 0 C0.33 0.66 0.66 1.32 1 2 C3.02463255 2.65213292 3.02463255 2.65213292 5 3 C4.01 5.31 3.02 7.62 2 10 C2.66 10 3.32 10 4 10 C4.33 10.66 4.66 11.32 5 12 C5.99 12 6.98 12 8 12 C7.67 12.99 7.34 13.98 7 15 C4.36 15 1.72 15 -1 15 C-1 13.68 -1 12.36 -1 11 C-1.020625 10.030625 -1.04125 9.06125 -1.0625 8.0625 C-1.00472355 5.23145389 -0.64671554 2.74854104 0 0 Z " fill="#292528" transform="translate(157,6)"/>
<path d="M0 0 C1 3 1 3 0.0625 5.1875 C-0.288125 5.785625 -0.63875 6.38375 -1 7 C-1.66 7 -2.32 7 -3 7 C-3.268125 8.19625 -3.53625 9.3925 -3.8125 10.625 C-4.74087006 14.37855376 -6.13048843 17.60088806 -8 21 C-8.33 20.34 -8.66 19.68 -9 19 C-8.67 18.21625 -8.34 17.4325 -8 16.625 C-6.75414786 14.14155842 -6.75414786 14.14155842 -7.54296875 12.09375 C-8.13011437 9.40392051 -7.55237462 8.29943885 -6.3125 5.875 C-5.97863281 5.19179687 -5.64476562 4.50859375 -5.30078125 3.8046875 C-3.77318762 1.68532337 -2.39213122 0.97699675 0 0 Z " fill="#403C40" transform="translate(28,78)"/>
<path d="M0 0 C0.33 0 0.66 0 1 0 C1.3125 2.1875 1.3125 2.1875 1 5 C-1.125 7.5 -1.125 7.5 -4 10 C-4.886875 10.86625 -5.77375 11.7325 -6.6875 12.625 C-10.5435812 15.83334053 -15.21000523 16.83563368 -20 18 C-20.66 17.34 -21.32 16.68 -22 16 C-21.19175781 15.76925781 -20.38351563 15.53851563 -19.55078125 15.30078125 C-13.3265632 13.40123099 -9.18949545 12.00036554 -5 7 C-4.01 6.67 -3.02 6.34 -2 6 C-0.77479736 2.99152582 -0.77479736 2.99152582 0 0 Z " fill="#2C2528" transform="translate(209,177)"/>
<path d="M0 0 C0.33 0.66 0.66 1.32 1 2 C0.34 2 -0.32 2 -1 2 C-1.33 2.99 -1.66 3.98 -2 5 C-2.99 4.67 -3.98 4.34 -5 4 C-5.33 4.99 -5.66 5.98 -6 7 C-6 5.68 -6 4.36 -6 3 C-7.65 3.33 -9.3 3.66 -11 4 C-11 3.34 -11 2.68 -11 2 C-14.96 2 -18.92 2 -23 2 C-23 1.67 -23 1.34 -23 1 C-15.3164908 0.38794237 -7.70947565 -0.13292199 0 0 Z " fill="#483F41" transform="translate(89,93)"/>
<path d="M0 0 C0.99 0.33 1.98 0.66 3 1 C3 8.92 3 16.84 3 25 C2.67 25 2.34 25 2 25 C1.34 18.73 0.68 12.46 0 6 C-0.33 6 -0.66 6 -1 6 C-1.042721 4.33388095 -1.04063832 2.66617115 -1 1 C-0.67 0.67 -0.34 0.34 0 0 Z " fill="#130D0F" transform="translate(141,164)"/>
<path d="M0 0 C1.98 0 3.96 0 6 0 C6 0.99 6 1.98 6 3 C7.64488294 4.68816933 9.31337542 6.35353315 11 8 C12.375 10.125 12.375 10.125 13 12 C12.67 12.99 12.34 13.98 12 15 C11.56429687 14.38511719 11.12859375 13.77023438 10.6796875 13.13671875 C7.18031568 8.38757128 4.59705387 5.04770264 -1 3 C-0.67 2.01 -0.34 1.02 0 0 Z " fill="#30292C" transform="translate(122,93)"/>
<path d="M0 0 C0.33 0 0.66 0 1 0 C1 10.89 1 21.78 1 33 C0.34 33 -0.32 33 -1 33 C-1.02724423 30.16660035 -1.04695589 27.33346883 -1.0625 24.5 C-1.07087891 23.70851562 -1.07925781 22.91703125 -1.08789062 22.1015625 C-1.10891185 16.97238283 -0.73937287 12.07663894 0 7 C-0.99 6.67 -1.98 6.34 -3 6 C-2.67 5.01 -2.34 4.02 -2 3 C-1.34 3.33 -0.68 3.66 0 4 C0 2.68 0 1.36 0 0 Z " fill="#262223" transform="translate(119,124)"/>
<path d="M0 0 C2.475 0.99 2.475 0.99 5 2 C5.08096803 3.45742463 5.13917774 4.91612807 5.1875 6.375 C5.22230469 7.18710938 5.25710937 7.99921875 5.29296875 8.8359375 C5.19628906 9.55007812 5.09960938 10.26421875 5 11 C4.01 11.66 3.02 12.32 2 13 C-0.36453193 10.63546807 -0.36652704 9.74130071 -0.6875 6.5 C-0.77386719 5.7059375 -0.86023438 4.911875 -0.94921875 4.09375 C-1 2 -1 2 0 0 Z " fill="#383232" transform="translate(135,109)"/>
<path d="M0 0 C0.66 0.66 1.32 1.32 2 2 C1.67 2.33 1.34 2.66 1 3 C0.76250896 6.58121414 0.60375158 10.15556299 0.48242188 13.7421875 C0.30676167 17.61334063 0.19202312 19.71196532 -2 23 C-3.06830752 18.61476993 -3.21749075 14.30283988 -3.25 9.8125 C-3.270625 9.08869141 -3.29125 8.36488281 -3.3125 7.61914062 C-3.328125 5.51953125 -3.328125 5.51953125 -3 2 C-2.01 1.34 -1.02 0.68 0 0 Z " fill="#322B28" transform="translate(195,104)"/>
<path d="M0 0 C3.5625 0.1875 3.5625 0.1875 5.5625 2.1875 C5.1875 4.3125 5.1875 4.3125 4.5625 6.1875 C4.2325 5.5275 3.9025 4.8675 3.5625 4.1875 C2.5725 4.1875 1.5825 4.1875 0.5625 4.1875 C-0.0975 6.8275 -0.7575 9.4675 -1.4375 12.1875 C-4.00045176 9.51775858 -4.43087817 8.28517206 -4.6875 4.5 C-4.36584998 0.23813727 -4.36584998 0.23813727 0 0 Z " fill="#332F33" transform="translate(141.4375,5.8125)"/>
<path d="M0 0 C7.32489451 0.47257384 7.32489451 0.47257384 10 2.5625 C10.33 3.036875 10.66 3.51125 11 4 C9.68 4 8.36 4 7 4 C4.37612865 5.39092892 4.37612865 5.39092892 2 7 C1.01 7.495 1.01 7.495 0 8 C-0.38063221 5.6739143 -0.71269945 3.33944736 -1 1 C-0.67 0.67 -0.34 0.34 0 0 Z " fill="#545252" transform="translate(114,218)"/>
<path d="M0 0 C1.32 0.33 2.64 0.66 4 1 C3.34 4.96 2.68 8.92 2 13 C0.68 13 -0.64 13 -2 13 C-1.34 8.71 -0.68 4.42 0 0 Z " fill="#2F2F2F" transform="translate(175,10)"/>
<path d="M0 0 C0 0.66 0 1.32 0 2 C-5.94 2 -11.88 2 -18 2 C-18.33 1.34 -18.66 0.68 -19 0 C-12.48755792 -0.69508823 -6.4489191 -1.31909709 0 0 Z " fill="#1B1819" transform="translate(147,194)"/>
<path d="M0 0 C2 2 2 2 2 6 C-1.63 6 -5.26 6 -9 6 C-9 5.34 -9 4.68 -9 4 C-7.68 4 -6.36 4 -5 4 C-4.67 3.01 -4.34 2.02 -4 1 C-2.0625 0.1875 -2.0625 0.1875 0 0 Z " fill="#272121" transform="translate(158,190)"/>
<path d="M0 0 C0.33 0.99 0.66 1.98 1 3 C1.66 3 2.32 3 3 3 C3.21192221 8.19209404 2.5912689 12.126739 1 17 C0.67 17 0.34 17 0 17 C0 15.02 0 13.04 0 11 C-0.33 11 -0.66 11 -1 11 C-1.22174933 9.54364629 -1.42698698 8.08477044 -1.625 6.625 C-1.74101562 5.81289062 -1.85703125 5.00078125 -1.9765625 4.1640625 C-1.98429688 3.44992188 -1.99203125 2.73578125 -2 2 C-1.34 1.34 -0.68 0.68 0 0 Z " fill="#342D2F" transform="translate(210,159)"/>
<path d="M0 0 C3 1 3 1 4 3 C6.64 2.34 9.28 1.68 12 1 C12 2.65 12 4.3 12 6 C10.39592672 6.02708567 8.7917215 6.04643483 7.1875 6.0625 C5.84751953 6.07990234 5.84751953 6.07990234 4.48046875 6.09765625 C2 6 2 6 -1 5 C-1.33 4.01 -1.66 3.02 -2 2 C-1.34 1.34 -0.68 0.68 0 0 Z " fill="#444243" transform="translate(265,119)"/>
<path d="M0 0 C0.02696365 1.79158489 0.04637917 3.58328473 0.0625 5.375 C0.07410156 6.37273437 0.08570312 7.37046875 0.09765625 8.3984375 C0 11 0 11 -1 13 C-1.66 13 -2.32 13 -3 13 C-2.67 11.68 -2.34 10.36 -2 9 C-2.66 8.67 -3.32 8.34 -4 8 C-5.26229508 3.52459016 -5.26229508 3.52459016 -4 1 C-1 0 -1 0 0 0 Z " fill="#3C3637" transform="translate(119,143)"/>
<path d="M0 0 C1.32 0 2.64 0 4 0 C4.36923077 6.4 4.36923077 6.4 2.5 9.4375 C2.005 9.953125 1.51 10.46875 1 11 C0.34 10.67 -0.32 10.34 -1 10 C-1.02689216 8.52093108 -1.04634621 7.04172517 -1.0625 5.5625 C-1.07410156 4.73878906 -1.08570312 3.91507812 -1.09765625 3.06640625 C-1 1 -1 1 0 0 Z " fill="#332D2C" transform="translate(79,96)"/>
<path d="M0 0 C1.65 0.33 3.3 0.66 5 1 C5 1.66 5 2.32 5 3 C6.65 2.67 8.3 2.34 10 2 C10 3.32 10 4.64 10 6 C8.54257537 6.08096803 7.08387193 6.13917774 5.625 6.1875 C4.81289062 6.22230469 4.00078125 6.25710937 3.1640625 6.29296875 C2.44992188 6.19628906 1.73578125 6.09960938 1 6 C0.34 5.01 -0.32 4.02 -1 3 C-0.67 2.01 -0.34 1.02 0 0 Z " fill="#564F53" transform="translate(155,220)"/>
<path d="M0 0 C0.66 0 1.32 0 2 0 C2.48828125 1.98567708 2.9765625 3.97135417 3.46484375 5.95703125 C3.91010705 7.65683202 4.44433985 9.33301954 5 11 C3.02 11.99 3.02 11.99 1 13 C-1.42857143 4.57142857 -1.42857143 4.57142857 0 0 Z " fill="#272125" transform="translate(11,163)"/>
<path d="M0 0 C0.33 0.66 0.66 1.32 1 2 C2.65 1.67 4.3 1.34 6 1 C4.02433812 2.97566188 2.47662906 3.89579072 0 5.125 C-0.70125 5.47820313 -1.4025 5.83140625 -2.125 6.1953125 C-4 7 -4 7 -6 7 C-6 6.34 -6 5.68 -6 5 C-6.66 4.67 -7.32 4.34 -8 4 C-5.36 2.68 -2.72 1.36 0 0 Z " fill="#3B323C" transform="translate(83,23)"/>
<path d="M0 0 C0.99 0.66 1.98 1.32 3 2 C3 2.99 3 3.98 3 5 C2.34 5 1.68 5 1 5 C1 5.66 1 6.32 1 7 C-0.58960328 8.80636736 -1.83852297 9.91926148 -4 11 C-4.99 10.01 -5.98 9.02 -7 8 C-5.824375 7.4121875 -5.824375 7.4121875 -4.625 6.8125 C-1.64843582 4.75725331 -1.01176437 3.40320742 0 0 Z " fill="#2A2424" transform="translate(191,127)"/>
<path d="M0 0 C2.125 0.375 2.125 0.375 4 1 C4.144375 1.598125 4.28875 2.19625 4.4375 2.8125 C4.8872439 4.56150404 5.42892341 6.28677023 6 8 C3.69 7.67 1.38 7.34 -1 7 C-1.625 4.625 -1.625 4.625 -2 2 C-1.34 1.34 -0.68 0.68 0 0 Z M0 3 C0.66 3.66 1.32 4.32 2 5 C2 4.34 2 3.68 2 3 C1.34 3 0.68 3 0 3 Z " fill="#2C2829" transform="translate(243,64)"/>
<path d="M0 0 C0.33 0.66 0.66 1.32 1 2 C-0.98 4.97 -2.96 7.94 -5 11 C-5.33 10.34 -5.66 9.68 -6 9 C-6.66 8.67 -7.32 8.34 -8 8 C-6.68 6.02 -5.36 4.04 -4 2 C-3.01 2.33 -2.02 2.66 -1 3 C-0.67 2.01 -0.34 1.02 0 0 Z " fill="#302A2E" transform="translate(256,213)"/>
<path d="M0 0 C6.625 -0.25 6.625 -0.25 10 2 C9.34 2 8.68 2 8 2 C8.33 2.66 8.66 3.32 9 4 C9.99 4 10.98 4 12 4 C11.67 4.99 11.34 5.98 11 7 C6.25 6.25 6.25 6.25 4 4 C4.33 3.34 4.66 2.68 5 2 C3.35 1.67 1.7 1.34 0 1 C0 0.67 0 0.34 0 0 Z " fill="#42393E" transform="translate(178,91)"/>
<path d="M0 0 C-0.66 0 -1.32 0 -2 0 C-2 0.66 -2 1.32 -2 2 C-3.45706726 2.50367757 -4.91570096 3.00282556 -6.375 3.5 C-7.59316406 3.91765625 -7.59316406 3.91765625 -8.8359375 4.34375 C-11 5 -11 5 -13 5 C-12 2 -12 2 -10.0390625 1.015625 C-9.24242188 0.76296875 -8.44578125 0.5103125 -7.625 0.25 C-6.83351563 -0.01296875 -6.04203125 -0.2759375 -5.2265625 -0.546875 C-3 -1 -3 -1 0 0 Z " fill="#2B262B" transform="translate(97,20)"/>
<path d="M0 0 C1.125 5.625 1.125 5.625 0 9 C-3 9 -3 9 -5 8 C-4.649375 7.21625 -4.29875 6.4325 -3.9375 5.625 C-3.628125 4.75875 -3.31875 3.8925 -3 3 C-3.33 2.34 -3.66 1.68 -4 1 C-2 0 -2 0 0 0 Z " fill="#3E3C3C" transform="translate(176,217)"/>
<path d="M0 0 C2.86453858 3.41016497 4.34703566 6.90694544 6 11 C4.68 11 3.36 11 2 11 C0.68 8.03 -0.64 5.06 -2 2 C-1.34 2 -0.68 2 0 2 C0 1.34 0 0.68 0 0 Z " fill="#302A30" transform="translate(25,201)"/>
<path d="M0 0 C-0.33 1.65 -0.66 3.3 -1 5 C-1.33 4.34 -1.66 3.68 -2 3 C-2.66 3 -3.32 3 -4 3 C-4.33 3.99 -4.66 4.98 -5 6 C-7.64 5.67 -10.28 5.34 -13 5 C-13 4.67 -13 4.34 -13 4 C-11.35 4 -9.7 4 -8 4 C-8 3.34 -8 2.68 -8 2 C-5.09399739 0.74335022 -3.20395416 0 0 0 Z " fill="#2B2728" transform="translate(278,153)"/>
<path d="M0 0 C0.33 0.66 0.66 1.32 1 2 C2.32407669 2.68486725 3.65909241 3.34870203 5 4 C6.35113205 4.97581759 7.68946944 5.97029741 9 7 C8.67 8.32 8.34 9.64 8 11 C7.236875 10.21625 6.47375 9.4325 5.6875 8.625 C3.09108195 5.92742283 3.09108195 5.92742283 0 4 C-0.66 3.01 -1.32 2.02 -2 1 C-1.34 0.67 -0.68 0.34 0 0 Z " fill="#312525" transform="translate(198,142)"/>
<path d="M0 0 C0.33 0 0.66 0 1 0 C1 2.97 1 5.94 1 9 C0.01 8.01 -0.98 7.02 -2 6 C-2.66 6.66 -3.32 7.32 -4 8 C-6.125 7.625 -6.125 7.625 -8 7 C-5.63707344 4.47411298 -4.33537489 3.11179163 -1 2 C-0.67 1.34 -0.34 0.68 0 0 Z " fill="#403D40" transform="translate(192,19)"/>
<path d="M0 0 C0.99 0.66 1.98 1.32 3 2 C2.07265428 3.48555383 1.13275187 4.96327506 0.1875 6.4375 C-0.59560547 7.67306641 -0.59560547 7.67306641 -1.39453125 8.93359375 C-3 11 -3 11 -6 12 C-6 9 -6 9 -4.125 7.125 C-3.42375 6.42375 -2.7225 5.7225 -2 5 C-0.74563813 2.36777038 -0.74563813 2.36777038 0 0 Z " fill="#272123" transform="translate(135,179)"/>
<path d="M0 0 C0.99 0.33 1.98 0.66 3 1 C2.39301257 5.12751449 0.96189209 8.3321148 -1 12 C-1.66 11.01 -2.32 10.02 -3 9 C-2.5390625 6.73828125 -2.5390625 6.73828125 -1.625 4.3125 C-1.32851563 3.50425781 -1.03203125 2.69601563 -0.7265625 1.86328125 C-0.48679687 1.24839844 -0.24703125 0.63351563 0 0 Z " fill="#342B31" transform="translate(263,194)"/>
<path d="M0 0 C0.33 0.66 0.66 1.32 1 2 C2.91425781 1.96519531 2.91425781 1.96519531 4.8671875 1.9296875 C6.5364525 1.91093171 8.2057238 1.89273131 9.875 1.875 C10.71675781 1.85824219 11.55851563 1.84148437 12.42578125 1.82421875 C13.23144531 1.81777344 14.03710938 1.81132813 14.8671875 1.8046875 C15.61081543 1.79421387 16.35444336 1.78374023 17.12060547 1.77294922 C19 2 19 2 21 4 C17.54173658 4.05789006 14.08359707 4.09355821 10.625 4.125 C9.64015625 4.14175781 8.6553125 4.15851563 7.640625 4.17578125 C6.69960937 4.18222656 5.75859375 4.18867187 4.7890625 4.1953125 C3.48509521 4.21102295 3.48509521 4.21102295 2.15478516 4.22705078 C0 4 0 4 -2 2 C-1.34 2 -0.68 2 0 2 C0 1.34 0 0.68 0 0 Z " fill="#291E23" transform="translate(119,90)"/>
<path d="M0 0 C0.33 0.66 0.66 1.32 1 2 C1.99 2 2.98 2 4 2 C3.67 2.99 3.34 3.98 3 5 C0.36 5 -2.28 5 -5 5 C-5 3.68 -5 2.36 -5 1 C-3 0 -3 0 0 0 Z " fill="#3D393E" transform="translate(161,16)"/>
<path d="M0 0 C0.66 1.32 1.32 2.64 2 4 C-2.32734391 6.22923777 -5.28400182 5.92470553 -10 5 C-7.90217213 2.90217213 -6.6200793 2.3490604 -3.875 1.375 C-3.15054688 1.11460938 -2.42609375 0.85421875 -1.6796875 0.5859375 C-0.84824219 0.29589844 -0.84824219 0.29589844 0 0 Z " fill="#413840" transform="translate(101,15)"/>
<path d="M0 0 C0.66 0.66 1.32 1.32 2 2 C1.01 2.495 1.01 2.495 0 3 C0.061875 4.19625 0.12375 5.3925 0.1875 6.625 C0.20943937 10.73497595 -0.86869566 13.4478261 -3 17 C-3.33 17 -3.66 17 -4 17 C-2.77419355 2.77419355 -2.77419355 2.77419355 0 0 Z " fill="#352B31" transform="translate(141,162)"/>
<path d="M0 0 C0.66 1.32 1.32 2.64 2 4 C1.360625 4.268125 0.72125 4.53625 0.0625 4.8125 C-2.33131686 5.88667752 -2.33131686 5.88667752 -3 9 C-3.99 8.01 -4.98 7.02 -6 6 C-4.02 4.02 -2.04 2.04 0 0 Z " fill="#39373B" transform="translate(53,43)"/>
<path d="M0 0 C2.375 -0.1875 2.375 -0.1875 5 0 C5.66 0.99 6.32 1.98 7 3 C1.06 3.495 1.06 3.495 -5 4 C-4.67 3.34 -4.34 2.68 -4 2 C-2.68 2 -1.36 2 0 2 C0 1.34 0 0.68 0 0 Z " fill="#2D282A" transform="translate(118,11)"/>
<path d="M0 0 C-2.59159438 2.59159438 -4.41954865 2.56157739 -8 3 C-11 3 -11 3 -14 2 C-8.77729131 -0.66464729 -5.9180497 -1.32854177 0 0 Z " fill="#3B3739" transform="translate(201,264)"/>
<path d="M0 0 C1.62723299 0.45034123 3.25173664 0.91055354 4.875 1.375 C5.77992187 1.63023437 6.68484375 1.88546875 7.6171875 2.1484375 C10 3 10 3 12 5 C10.906875 4.814375 9.81375 4.62875 8.6875 4.4375 C5.06375867 3.7421932 5.06375867 3.7421932 2 5 C-0.1875 3.5625 -0.1875 3.5625 -2 2 C-1.34 1.34 -0.68 0.68 0 0 Z " fill="#363236" transform="translate(87,262)"/>
<path d="M0 0 C1.98 0.495 1.98 0.495 4 1 C3.34 3.31 2.68 5.62 2 8 C1.01 8 0.02 8 -1 8 C-1.125 2.25 -1.125 2.25 0 0 Z " fill="#271C20" transform="translate(265,189)"/>
<path d="M0 0 C0.66 1.32 1.32 2.64 2 4 C-0.31 5.32 -2.62 6.64 -5 8 C-5 5 -5 5 -3 2 C-2.01 1.34 -1.02 0.68 0 0 Z " fill="#241F24" transform="translate(67,32)"/>
<path d="M0 0 C0.99 0.33 1.98 0.66 3 1 C2.01 1.495 2.01 1.495 1 2 C1 2.99 1 3.98 1 5 C-0.65 5.66 -2.3 6.32 -4 7 C-4 6.34 -4 5.68 -4 5 C-4.66 4.67 -5.32 4.34 -6 4 C-3.1875 1.9375 -3.1875 1.9375 0 0 Z " fill="#353032" transform="translate(209,255)"/>
<path d="M0 0 C2.66666667 1.33333333 5.33333333 2.66666667 8 4 C4.92677456 4.91058531 2.19902639 5.08886184 -1 5 C-1 4.34 -1 3.68 -1 3 C-1.66 2.67 -2.32 2.34 -3 2 C-2.01 1.34 -1.02 0.68 0 0 Z " fill="#4D4B4C" transform="translate(121,221)"/>
<path d="M0 0 C0.33 1.32 0.66 2.64 1 4 C-2.28976808 5.09658936 -3.71303767 4.79953138 -7 4 C-7 3.01 -7 2.02 -7 1 C-2.25 0 -2.25 0 0 0 Z " fill="#473E44" transform="translate(153,219)"/>
<path d="M0 0 C0.33 0 0.66 0 1 0 C0.88590407 1.45922693 0.75834456 2.91740598 0.625 4.375 C0.55539063 5.18710938 0.48578125 5.99921875 0.4140625 6.8359375 C0 9 0 9 -2 11 C-2.33 10.34 -2.66 9.68 -3 9 C-3.66 9 -4.32 9 -5 9 C-4.67 7.68 -4.34 6.36 -4 5 C-3.34 5 -2.68 5 -2 5 C-1.34 3.35 -0.68 1.7 0 0 Z " fill="#4C303C" transform="translate(212,169)"/>
<path d="M0 0 C2.69082872 0.17635452 5.32851446 0.61835921 8 1 C8.33 1.99 8.66 2.98 9 4 C6.16032769 4 3.76264289 3.59732819 1 3 C0.67 3.66 0.34 4.32 0 5 C-0.5625 3.0625 -0.5625 3.0625 -1 1 C-0.67 0.67 -0.34 0.34 0 0 Z " fill="#2E2B2F" transform="translate(258,95)"/>
<path d="M0 0 C2.625 -0.1875 2.625 -0.1875 5 0 C4.67 1.65 4.34 3.3 4 5 C2.02 4.34 0.04 3.68 -2 3 C-1.34 2.01 -0.68 1.02 0 0 Z " fill="#42373B" transform="translate(128,93)"/>
<path d="M0 0 C0.33 0.99 0.66 1.98 1 3 C-1.64 3.99 -4.28 4.98 -7 6 C-7.66 5.34 -8.32 4.68 -9 4 C-6.03 2.68 -3.06 1.36 0 0 Z " fill="#1E191D" transform="translate(192,265)"/>
<path d="M0 0 C0 0.66 0 1.32 0 2 C-4.95 3.485 -4.95 3.485 -10 5 C-10.66 4.34 -11.32 3.68 -12 3 C-10.56445975 2.49440092 -9.1264798 1.9957251 -7.6875 1.5 C-6.88699219 1.2215625 -6.08648437 0.943125 -5.26171875 0.65625 C-3 0 -3 0 0 0 Z " fill="#1E1A1C" transform="translate(199,190)"/>
<path d="M0 0 C2.14699969 3.44175522 2.09856795 5.7720292 1.625 9.75 C1.51414063 10.73484375 1.40328125 11.7196875 1.2890625 12.734375 C1.19367188 13.48203125 1.09828125 14.2296875 1 15 C0.67 15 0.34 15 0 15 C-1.28571429 6.57142857 -1.28571429 6.57142857 0 2 C-0.66 1.67 -1.32 1.34 -2 1 C-1.34 0.67 -0.68 0.34 0 0 Z " fill="#362E2E" transform="translate(137,94)"/>
<path d="M0 0 C0.99 0.66 1.98 1.32 3 2 C3.66 2.33 4.32 2.66 5 3 C3.35 3.66 1.7 4.32 0 5 C0 6.65 0 8.3 0 10 C-1.76462683 6.91190305 -2 5.76687864 -2 2 C-1.34 2 -0.68 2 0 2 C0 1.34 0 0.68 0 0 Z " fill="#392F38" transform="translate(210,28)"/>
<path d="M0 0 C1.4606285 2.64738916 2 3.89448334 2 7 C1.34 7 0.68 7 0 7 C-0.66 7.66 -1.32 8.32 -2 9 C-3 6 -3 6 -1.5625 2.8125 C-1.046875 1.884375 -0.53125 0.95625 0 0 Z " fill="#372324" transform="translate(195,178)"/>
<path d="M0 0 C2.64 0.66 5.28 1.32 8 2 C5.4345406 4.5654594 3.52313332 4.54046087 0 5 C0 3.35 0 1.7 0 0 Z " fill="#363435" transform="translate(266,136)"/>
<path d="M0 0 C1.32 0.33 2.64 0.66 4 1 C3.67 2.32 3.34 3.64 3 5 C1.35 5.33 -0.3 5.66 -2 6 C-1.34 4.02 -0.68 2.04 0 0 Z " fill="#454243" transform="translate(115,130)"/>
<path d="M0 0 C1.32 0.33 2.64 0.66 4 1 C2.25 3.0625 2.25 3.0625 0 5 C-2.25 4.75 -2.25 4.75 -4 4 C-3.01 3.67 -2.02 3.34 -1 3 C-0.67 2.01 -0.34 1.02 0 0 Z " fill="#282325" transform="translate(213,253)"/>
<path d="M0 0 C0.33 1.32 0.66 2.64 1 4 C-0.32 4.99 -1.64 5.98 -3 7 C-4.125 3.25 -4.125 3.25 -3 1 C-2.01 0.67 -1.02 0.34 0 0 Z " fill="#352F2F" transform="translate(118,143)"/>
<path d="M0 0 C0.99 0 1.98 0 3 0 C3.33 1.65 3.66 3.3 4 5 C3.01 5.495 3.01 5.495 2 6 C-0.125 5.0625 -0.125 5.0625 -2 4 C-1.34 2.68 -0.68 1.36 0 0 Z " fill="#443E41" transform="translate(275,133)"/>
<path d="M0 0 C0.99 0 1.98 0 3 0 C3 1.98 3 3.96 3 6 C1.68 6 0.36 6 -1 6 C-0.67 4.02 -0.34 2.04 0 0 Z " fill="#373437" transform="translate(174,17)"/>
<path d="M0 0 C-0.33 0.99 -0.66 1.98 -1 3 C-2.65 3.33 -4.3 3.66 -6 4 C-6 3.34 -6 2.68 -6 2 C-6.66 1.67 -7.32 1.34 -8 1 C-4.93251126 -0.86240388 -3.40254489 -1.2151946 0 0 Z " fill="#312B2F" transform="translate(186,268)"/>
<path d="M0 0 C1.98 1.65 3.96 3.3 6 5 C5.01 5.66 4.02 6.32 3 7 C1.68 6.34 0.36 5.68 -1 5 C-0.67 4.34 -0.34 3.68 0 3 C0 2.67 0 2.34 0 2 C0 1.34 0 0.68 0 0 Z " fill="#403940" transform="translate(61,245)"/>
<path d="M0 0 C0.66 0.33 1.32 0.66 2 1 C-2.625 6.875 -2.625 6.875 -6 8 C-4.55746343 4.63408134 -2.66735273 2.48952921 0 0 Z " fill="#383535" transform="translate(238,232)"/>
<path d="M0 0 C2.625 0.9375 2.625 0.9375 5 2 C4.34 3.32 3.68 4.64 3 6 C2.34 5.01 1.68 4.02 1 3 C0.67 3.99 0.34 4.98 0 6 C-0.66 4.35 -1.32 2.7 -2 1 C-1.34 0.67 -0.68 0.34 0 0 Z " fill="#3C383A" transform="translate(162,219)"/>
<path d="M0 0 C1.98 0 3.96 0 6 0 C6.33 0.66 6.66 1.32 7 2 C6.01 2.495 6.01 2.495 5 3 C5.33 3.66 5.66 4.32 6 5 C4.35 4.67 2.7 4.34 1 4 C0.67 2.68 0.34 1.36 0 0 Z " fill="#353333" transform="translate(124,220)"/>
<path d="M0 0 C0.66 0.66 1.32 1.32 2 2 C1.625 4.125 1.625 4.125 1 6 C0.67 5.01 0.34 4.02 0 3 C-2.64 3.33 -5.28 3.66 -8 4 C-7.67 3.34 -7.34 2.68 -7 2 C-4.6859378 1.26924352 -2.35171131 0.59861742 0 0 Z " fill="#3F3C3D" transform="translate(274,112)"/>
<path d="M0 0 C0.99 0.33 1.98 0.66 3 1 C3 1.99 3 2.98 3 4 C4.32 4.33 5.64 4.66 7 5 C5.02 5.99 5.02 5.99 3 7 C0 2.25 0 2.25 0 0 Z " fill="#3D3739" transform="translate(251,82)"/>
<path d="M0 0 C0.99 0 1.98 0 3 0 C3.33 0.99 3.66 1.98 4 3 C2.68 3.99 1.36 4.98 0 6 C-1.125 2.25 -1.125 2.25 0 0 Z " fill="#656163" transform="translate(114,220)"/>
<path d="M0 0 C0.99 0 1.98 0 3 0 C3 1.65 3 3.3 3 5 C2.34 5 1.68 5 1 5 C0.34 5.66 -0.32 6.32 -1 7 C-0.67 4.69 -0.34 2.38 0 0 Z " fill="#231E23" transform="translate(27,74)"/>
<path d="M0 0 C0.99 0.33 1.98 0.66 3 1 C3 1.66 3 2.32 3 3 C2.34 3 1.68 3 1 3 C0.67 3.99 0.34 4.98 0 6 C-0.33 5.34 -0.66 4.68 -1 4 C-1.66 3.67 -2.32 3.34 -3 3 C-2.01 2.01 -1.02 1.02 0 0 Z " fill="#2F2730" transform="translate(46,50)"/>
<path d="M0 0 C1.65 1.65 3.3 3.3 5 5 C3.68 5.33 2.36 5.66 1 6 C-0.0625 4.125 -0.0625 4.125 -1 2 C-0.67 1.34 -0.34 0.68 0 0 Z " fill="#2F292F" transform="translate(40,225)"/>
<path d="M0 0 C0.66 0 1.32 0 2 0 C2.33 1.98 2.66 3.96 3 6 C2.01 6.495 2.01 6.495 1 7 C0.01 5.35 -0.98 3.7 -2 2 C-1.34 2 -0.68 2 0 2 C0 1.34 0 0.68 0 0 Z " fill="#3F353F" transform="translate(270,174)"/>
<path d="M0 0 C0.33 0.99 0.66 1.98 1 3 C2.65 3.33 4.3 3.66 6 4 C6 4.33 6 4.66 6 5 C3.36 5 0.72 5 -2 5 C-1.34 3.35 -0.68 1.7 0 0 Z " fill="#1C1719" transform="translate(95,138)"/>
<path d="M0 0 C2.86724686 0.57344937 3.8614515 0.8614515 6 3 C5.34 3.66 4.68 4.32 4 5 C3.01 4.67 2.02 4.34 1 4 C1.33 3.34 1.66 2.68 2 2 C1.34 2 0.68 2 0 2 C0 1.34 0 0.68 0 0 Z " fill="#3D3638" transform="translate(255,80)"/>
<path d="M0 0 C0.66 0.99 1.32 1.98 2 3 C1.34 3 0.68 3 0 3 C0 3.66 0 4.32 0 5 C-1.32 4.67 -2.64 4.34 -4 4 C-3.67 3.01 -3.34 2.02 -3 1 C-2.01 0.67 -1.02 0.34 0 0 Z " fill="#262227" transform="translate(57,41)"/>
<path d="M0 0 C1.32 0.33 2.64 0.66 4 1 C4.33 2.32 4.66 3.64 5 5 C4.34 5 3.68 5 3 5 C2.67 5.66 2.34 6.32 2 7 C2 5.68 2 4.36 2 3 C1.34 2.67 0.68 2.34 0 2 C0 1.34 0 0.68 0 0 Z " fill="#281E28" transform="translate(207,23)"/>
<path d="M0 0 C0.66 0.33 1.32 0.66 2 1 C2 1.66 2 2.32 2 3 C0.02 3.99 0.02 3.99 -2 5 C-2.99 4.34 -3.98 3.68 -5 3 C-4.34 3 -3.68 3 -3 3 C-3 2.34 -3 1.68 -3 1 C-2.01 0.67 -1.02 0.34 0 0 Z " fill="#252022" transform="translate(105,14)"/>
<path d="M0 0 C0.33 0.66 0.66 1.32 1 2 C0.34 2.66 -0.32 3.32 -1 4 C-1.33 4.66 -1.66 5.32 -2 6 C-3.32 5.67 -4.64 5.34 -6 5 C-5.34 5 -4.68 5 -4 5 C-4.33 4.01 -4.66 3.02 -5 2 C-3.35 1.34 -1.7 0.68 0 0 Z " fill="#494347" transform="translate(111,12)"/>
<path d="M0 0 C2 1 2 1 2 1 Z " fill="#2A2A2A" transform="translate(249,64)"/>
<path d="M0 0 C2 1 2 1 2 1 Z " fill="#191919" transform="translate(223,46)"/>
<path d="M0 0 C2 1 2 1 2 1 Z " fill="#2A0000" transform="translate(221,40)"/>
<path d="" fill="#555555" transform="translate(0,0)"/>
<path d="" fill="#404040" transform="translate(0,0)"/>
<path d="" fill="#808080" transform="translate(0,0)"/>
<path d="" fill="#663366" transform="translate(0,0)"/>
<path d="" fill="#4D4D4D" transform="translate(0,0)"/>
<path d="" fill="#333333" transform="translate(0,0)"/>
<path d="" fill="#333333" transform="translate(0,0)"/>
<path d="" fill="#333333" transform="translate(0,0)"/>
<path d="" fill="#494949" transform="translate(0,0)"/>
<path d="" fill="#393939" transform="translate(0,0)"/>
<path d="" fill="#404040" transform="translate(0,0)"/>
<path d="" fill="#000000" transform="translate(0,0)"/>
<path d="" fill="#000000" transform="translate(0,0)"/>
<path d="" fill="#303030" transform="translate(0,0)"/>
<path d="" fill="#000000" transform="translate(0,0)"/>
<path d="" fill="#000000" transform="translate(0,0)"/>
<path d="" fill="#555555" transform="translate(0,0)"/>
<path d="" fill="#000000" transform="translate(0,0)"/>
<path d="" fill="#2A2A2A" transform="translate(0,0)"/>
<path d="" fill="#555555" transform="translate(0,0)"/>
<path d="" fill="#555555" transform="translate(0,0)"/>
<path d="" fill="#000000" transform="translate(0,0)"/>
<path d="" fill="#404040" transform="translate(0,0)"/>
</svg>
